<?xml version="1.0" encoding="UTF-8" standalone="no"?><!DOCTYPE svg PUBLIC "-//W3C//DTD SVG 1.1//EN" "http://www.w3.org/Graphics/SVG/1.1/DTD/svg11.dtd"><svg width="100%" height="100%" viewBox="0 0 1517 1517" version="1.1" xmlns="http://www.w3.org/2000/svg" xmlns:xlink="http://www.w3.org/1999/xlink" xml:space="preserve" xmlns:serif="http://www.serif.com/" style="fill-rule:evenodd;clip-rule:evenodd;stroke-linecap:round;stroke-linejoin:round;stroke-miterlimit:1.5;"><g><circle cx="758.333" cy="758.333" r="758.333" style="fill:#00527d;"/><path d="M1012.34,799.606c0,0 -364.464,159.388 -394.888,186.734c0,0 327.749,-214.833 359.262,-216.453c0,0 -395.456,51.804 -468.108,97.599" style="fill:none;stroke:#fff;stroke-width:6.25px;"/><path d="M1232.68,1233.03c0,0 -66.98,48.091 -167.023,74.251l155.163,-41.468c0,0 -195.514,64.363 -236.65,75.61" style="fill:none;stroke:#fff;stroke-width:6.25px;"/><path d="M1226.33,1222.14c0,0 -198.798,80.594 -328.839,73.399" style="fill:none;stroke:#fff;stroke-width:6.25px;"/><path d="M1232.36,1239.83c0,0 -49.36,7.8 -128.737,5.797" style="fill:none;stroke:#fff;stroke-width:6.25px;"/><path d="M1231.84,1228.02c0,0 -207.972,14.645 -334.515,70.352" style="fill:none;stroke:#fff;stroke-width:6.25px;"/><path d="M1230.26,1213.47c0,0 -186.29,47.892 -334.056,79.423" style="fill:none;stroke:#fff;stroke-width:6.25px;"/><path d="M1219.46,1198.49c0,0 -217.579,70.863 -326.198,85.94" style="fill:none;stroke:#fff;stroke-width:6.25px;"/><path d="M1212.17,1185.79c0,0 -235.982,98.925 -314.694,119.79" style="fill:none;stroke:#fff;stroke-width:6.25px;"/><path d="M1209.79,1179.9c0,0 -164.701,78.918 -317.701,110.168c0,0 201.523,-40.699 320.273,-100.634" style="fill:none;stroke:#fff;stroke-width:6.25px;"/><path d="M892.506,1277.44c0,0 213.851,-40.222 317.976,-111.034c0,0 -272.581,1.09 -331.958,-2.82" style="fill:none;stroke:#fff;stroke-width:6.25px;"/><path d="M1215.12,1147.22c0,0 -306.47,94.752 -334.64,72.125" style="fill:none;stroke:#fff;stroke-width:6.25px;"/><path d="M1209.36,1130.68c0,0 -181.945,92.77 -321.759,135.748" style="fill:none;stroke:#fff;stroke-width:6.25px;"/><path d="M1207.69,1127.1c0,0 -214.551,73.517 -258.624,85.123c0,0 -29.09,7.02 -67.344,7.014" style="fill:none;stroke:#fff;stroke-width:6.25px;"/><path d="M1206.14,1120.75c0,0 -159.923,49.934 -326.152,73.117" style="fill:none;stroke:#fff;stroke-width:6.25px;"/><path d="M1182.58,1087.23c0,0 -214.456,73.705 -306.048,96.132" style="fill:none;stroke:#fff;stroke-width:6.25px;"/><path d="M1189.55,1087.23c0,0 -245.313,118.634 -294.703,136.187" style="fill:none;stroke:#fff;stroke-width:6.25px;"/><path d="M1182.21,1064.64c0,0 -219.204,20.833 -305.314,48.022" style="fill:none;stroke:#fff;stroke-width:6.25px;"/><path d="M1174.96,1055.39c0,0 -183.521,96.099 -296.231,146.928" style="fill:none;stroke:#fff;stroke-width:6.25px;"/><path d="M1165.29,1028.94c0,0 -98.661,57.586 -289.432,82.894" style="fill:none;stroke:#fff;stroke-width:6.25px;"/><path d="M1160.71,1016.91c0,0 -143.24,87.859 -285.659,141.636" style="fill:none;stroke:#fff;stroke-width:6.25px;"/><path d="M1162.38,1023.07c0,0 -168.544,44.337 -290.806,71.638" style="fill:none;stroke:#fff;stroke-width:6.25px;"/><path d="M1160.27,1015.72c0,0 -60.179,24.16 -286.57,62.621" style="fill:none;stroke:#fff;stroke-width:6.25px;"/><path d="M1152.65,1001.28c0,0 -126.946,51.737 -174.846,99.798c0,0 0.23,6.46 -104.223,39.928" style="fill:none;stroke:#fff;stroke-width:6.25px;"/><path d="M1146.32,987.801c0,0 -204.232,43.635 -276.037,70.415" style="fill:none;stroke:#fff;stroke-width:6.25px;"/><path d="M1141.93,977.692c0,0 -92.095,38.473 -271.42,85.922" style="fill:none;stroke:#fff;stroke-width:6.25px;"/><path d="M1136.25,966.503c0,0 -34.971,39.014 -263.174,147.633" style="fill:none;stroke:#fff;stroke-width:6.25px;"/><path d="M1133.9,962.318c0,0 -114.845,60.08 -263.316,105.469" style="fill:none;stroke:#fff;stroke-width:6.25px;"/><path d="M1131.92,959.247c0,0 -26.143,15.386 -251.392,73.181" style="fill:none;stroke:#fff;stroke-width:6.25px;"/><path d="M1116.73,927.044c0,0 -102.004,68.243 -244.908,151.427" style="fill:none;stroke:#fff;stroke-width:6.25px;"/><path d="M1117.42,928.909c0,0 4.507,4.767 -250.111,130.382" style="fill:none;stroke:#fff;stroke-width:6.25px;"/><path d="M1115.34,923.314c0,0 -2.899,-15.828 -234.918,108.31" style="fill:none;stroke:#fff;stroke-width:6.25px;"/><path d="M877.39,1031.71c0,0 77.881,-75.749 220.489,-135.173" style="fill:none;stroke:#fff;stroke-width:6.25px;"/><path d="M1111.42,916.969c0,0 -177.242,48.129 -288.849,94.208" style="fill:none;stroke:#fff;stroke-width:6.25px;"/><path d="M1082.35,870.662c0,0 -83.575,48.55 -284.96,130.494" style="fill:none;stroke:#fff;stroke-width:6.25px;"/><path d="M1069.78,861.857c0,0 -138.434,83.833 -257.734,142.354c0,0 174.959,-70.051 286.325,-106.536c0,0 -90.046,55.74 -230.966,161.747" style="fill:none;stroke:#fff;stroke-width:6.25px;"/><path d="M1073,862.703c0,0 -163.055,81.98 -419.282,137.258" style="fill:none;stroke:#fff;stroke-width:6.25px;"/><path d="M1027.79,811.129c0,0 -90.261,107.453 -223.672,193.2" style="fill:none;stroke:#fff;stroke-width:6.25px;"/><path d="M777.711,1000.63c0,0 212.705,-123.401 261.711,-181.326c0,0 -92.384,134.841 -224.757,188.627" style="fill:none;stroke:#fff;stroke-width:6.25px;"/><path d="M1034.84,815.595c0,0 -273.882,130.51 -365.666,185.421c0,0 304.523,-123.86 384.938,-165.236c0,0 -230.454,125.276 -377.695,167.838" style="fill:none;stroke:#fff;stroke-width:6.25px;"/><path d="M996.982,782.383c0,0 -336.373,138.777 -451.467,153.573c0,0 411.028,-149.185 451.467,-153.573Z" style="fill:none;stroke:#fff;stroke-width:6.25px;"/><path d="M962.758,754.374c0,0 -286.099,132.074 -413.269,183.591" style="fill:none;stroke:#fff;stroke-width:6.25px;"/><path d="M947.696,743.019c0,0 -224.63,30.678 -383.593,203.302" style="fill:none;stroke:#fff;stroke-width:6.25px;"/><path d="M933.304,733.37c0,0 -88.349,-14.372 -409.232,174.133" style="fill:none;stroke:#fff;stroke-width:6.25px;"/><path d="M926.566,721.486c0,0 -82.08,75.477 -385.746,209.122" style="fill:none;stroke:#fff;stroke-width:6.25px;"/><path d="M926.374,721.44c0,0 -148.7,28.043 -332.675,254.845c0,0 69.926,-37.828 359.288,-91.647c0,0 79.64,-20.856 110.419,-38.295" style="fill:none;stroke:#fff;stroke-width:6.25px;"/><path d="M1009.99,673.446c0,0 -410.374,124.047 -496.724,206.233" style="fill:none;stroke:#fff;stroke-width:6.25px;"/><path d="M491.362,837.211c0,0 327.706,-194.693 571.936,-204.179c0,0 -2.28,-7.915 22.69,-24.932c0,0 -259.628,21.595 -591.451,240.378" style="fill:none;stroke:#fff;stroke-width:6.25px;"/><path d="M1182.58,522.644c0,0 -66.742,32.603 -198.267,63.311c0,0 -351.494,196.409 -497.043,242.314c0,0 602.01,-245.088 677.957,-286.18" style="fill:none;stroke:#fff;stroke-width:6.25px;"/><path d="M1316.28,398.848c0,0 -254.602,108.893 -466.841,190.698c0,0 -238.499,101.201 -384.387,188.182" style="fill:none;stroke:#fff;stroke-width:6.25px;"/><path d="M1359.44,311.287c0,0 -188.908,154.214 -371.167,259.136c0,0 -257.678,51.207 -519.739,216.635" style="fill:none;stroke:#fff;stroke-width:6.25px;"/><path d="M1374.52,342.318c0,0 -487.956,132.391 -894.167,475.396c0,0 402.413,-122.002 707.777,-410.087" style="fill:none;stroke:#fff;stroke-width:6.25px;"/><path d="M1359.51,316.059c0,0 -58.687,53.434 -214.604,110.85c0,0 -52.817,36.309 -289.31,152.784c-236.492,116.476 -217.986,113.612 -395.465,184.464c0,0 110.151,-49.144 196.421,-99.04c0,0 118.085,-36.852 179.959,-92.315c0,0 366.334,-192.484 544.515,-247.519" style="fill:none;stroke:#fff;stroke-width:6.25px;"/><path d="M1362.96,299.147c0,0 -507.59,355.594 -903.129,470.848" style="fill:none;stroke:#fff;stroke-width:6.25px;"/><path d="M1345.1,279.595c0,0 -18.132,-15.377 -292.46,291.005" style="fill:none;stroke:#fff;stroke-width:6.25px;"/><path d="M932.097,472.728c0,0 372.985,-191.589 391.866,-202.5c0,0 -424.617,326.737 -859.5,503.758" style="fill:none;stroke:#fff;stroke-width:6.25px;"/><path d="M1270.92,283.551c0,0 -170.253,377.44 -739.098,641.215" style="fill:none;stroke:#fff;stroke-width:6.25px;"/><path d="M1198.28,303.809c0,0 -364.272,254.606 -753.324,409.245" style="fill:none;stroke:#fff;stroke-width:6.25px;"/><path d="M1135.99,324.766c0,0 -0.973,-5.989 -16.666,8.334c0,0 -407.812,261.968 -683.418,369.623" style="fill:none;stroke:#fff;stroke-width:6.25px;"/><path d="M994.322,378.933c0,0 -280.299,418.5 -437.5,566.667" style="fill:none;stroke:#fff;stroke-width:6.25px;"/><path d="M723.469,499.546c0,0 -170.373,143.785 -258.314,283.554" style="fill:none;stroke:#fff;stroke-width:6.25px;"/><path d="M990.484,256.314c6.76,-2.757 -347.4,490.551 -500.329,585.119" style="fill:none;stroke:#fff;stroke-width:6.25px;"/><path d="M989.237,251.51c0,0 -188.792,258.864 -157.415,335.756c0,0 94.709,31.722 404.166,-112.54" style="fill:none;stroke:#fff;stroke-width:6.25px;"/><path d="M973.488,362.266c1.398,1.307 -127.183,64.408 -279.166,125" style="fill:none;stroke:#fff;stroke-width:6.25px;"/><path d="M983.65,338.206c0,0 -188.849,151.004 -247.662,203.227" style="fill:none;stroke:#fff;stroke-width:6.25px;"/><path d="M991.712,294.252c0,0 -308.512,301.814 -554.452,416.504" style="fill:none;stroke:#fff;stroke-width:6.25px;"/><path d="M994.322,245.6c0,0 -188.631,149.321 -300,237.5c0,0 244.859,-131.605 298.665,-213.691c0,0 -55.63,113.112 -290.332,217.857" style="fill:none;stroke:#fff;stroke-width:6.25px;"/><path d="M448.487,734.867c0,0 168.392,-173.798 191.53,-185.089l4.305,4.155c0,0 330.775,-229.517 341.465,-235.909" style="fill:none;stroke:#fff;stroke-width:6.25px;"/><path d="M439.888,723.24c0,0 545.976,-334.373 554.434,-344.307c0,0 42.833,-21.395 62.5,-25c0,0 -600.176,364.062 -608.879,380.934" style="fill:none;stroke:#fff;stroke-width:6.25px;"/><path d="M432.236,700.462c73.408,-62.954 166.299,-126.821 205.956,-188.196" style="fill:none;stroke:#fff;stroke-width:6.25px;"/><path d="M427.655,695.6c0,0 167.832,-268.501 166.667,-275" style="fill:none;stroke:#fff;stroke-width:6.25px;"/><path d="M631.822,495.6c0,0 -143.513,208.082 -183.334,254.166c-0.895,-1.922 478.51,-199.821 687.5,-425" style="fill:none;stroke:#fff;stroke-width:6.25px;"/><g><path d="M615.141,455.838c0,0 -203.078,187.187 -206.353,193.361l193.867,-216.099" style="fill:none;stroke:#fff;stroke-width:6.25px;"/><path d="M638.192,506.748c0,0 -200.866,78.988 -256.873,89.527" style="fill:none;stroke:#fff;stroke-width:6.25px;"/><path d="M394.322,641.433c0,0 192.572,-203.872 204.166,-216.667" style="fill:none;stroke:#fff;stroke-width:6.25px;"/><path d="M573.488,387.266c0,0 -33.333,62.5 -191.666,212.5" style="fill:none;stroke:#fff;stroke-width:6.25px;"/><path d="M495.005,343.852c0,0 -74.914,207.057 -110.261,261.086c0,0 207.089,-159.747 217.911,-171.838c0,0 -193.471,143.489 -225,158.333c0,0 208.366,-141.703 216.667,-175c0,0 -197.329,126.412 -225,165.161" style="fill:none;stroke:#fff;stroke-width:6.25px;"/><path d="M515.573,349.598c0,0 -93.947,103.212 -154.585,221.002" style="fill:none;stroke:#fff;stroke-width:6.25px;"/><path d="M471.861,342.231c0,0 -80.64,186.693 -103.299,239.363c0,0 152.869,-195.199 171.593,-219.328c0,0 -55.516,140.901 -62.5,162.5" style="fill:none;stroke:#fff;stroke-width:6.25px;"/><path d="M452.655,345.6c0,0 -91.222,166.681 -112.5,198.373c0,0 134.37,-125.707 225,-173.373" style="fill:none;stroke:#fff;stroke-width:6.25px;"/><path d="M427.655,353.933c0,0 -67.315,168.602 -75,200" style="fill:none;stroke:#fff;stroke-width:6.25px;"/><path d="M423.488,353.933c0,0 -83.757,53.608 -91.784,183.333" style="fill:none;stroke:#fff;stroke-width:6.25px;"/><path d="M381.822,378.933c0,0 -49.588,142.84 -50.118,158.333" style="fill:none;stroke:#fff;stroke-width:6.25px;"/><path d="M369.322,378.933c0,0 -40.064,125.578 -37.5,158.333" style="fill:none;stroke:#fff;stroke-width:6.25px;"/><path d="M315.155,416.433c0,0 -9.648,8.186 -25,87.5" style="fill:none;stroke:#fff;stroke-width:6.25px;"/><path d="M273.488,441.433c0,0 -3.251,4.691 -4.166,8.333" style="fill:none;stroke:#fff;stroke-width:6.25px;"/><path d="M256.822,441.433c0,0 -12.434,21.61 -20.834,45.833" style="fill:none;stroke:#fff;stroke-width:6.25px;"/><path d="M198.488,491.433c0,0 11.305,-26.572 12.5,-33.333" style="fill:none;stroke:#fff;stroke-width:6.25px;"/><path d="M185.988,466.433c0,0 3.685,17.592 8.334,25" style="fill:none;stroke:#fff;stroke-width:6.25px;"/><path d="M156.822,474.766c0,0 1.984,10.966 8.333,12.5c0,0 -0.789,-12.31 4.167,-16.666" style="fill:none;stroke:#fff;stroke-width:6.25px;"/><path d="M94.322,487.266c-1.515,5.356 -3.912,0.251 0,12.5" style="fill:none;stroke:#fff;stroke-width:6.25px;"/><path d="M69.322,491.433c0.557,0.184 -6.585,2.491 -4.167,16.667" style="fill:none;stroke:#fff;stroke-width:6.25px;"/><path d="M115.155,487.266c0,0 1.6,5.572 8.333,12.5" style="fill:none;stroke:#fff;stroke-width:6.25px;"/><path d="M140.155,474.766c0,0 -3.537,13.719 -8.333,25" style="fill:none;stroke:#fff;stroke-width:6.25px;"/><path d="M48.488,499.766c0,0 1.375,2.277 4.167,12.5" style="fill:none;stroke:#fff;stroke-width:6.25px;"/></g><path d="M619.322,466.433c0,0 -197.475,198.274 -204.167,204.167" style="fill:none;stroke:#fff;stroke-width:6.25px;"/><path d="M415.155,670.6c0,0 212.673,-150.837 229.167,-150c0,0 -75.999,106.336 -220.834,162.5c0,0 198.911,-211.723 200,-208.334" style="fill:none;stroke:#fff;stroke-width:6.25px;"/><path d="M1176.35,310.64c0,0 -82.426,97.279 -212.133,176.71" style="fill:none;stroke:#fff;stroke-width:6.25px;"/><path d="M926.566,1362.27l26.707,-8.148" style="fill:none;stroke:#fff;stroke-width:6.25px;"/><path d="M1223.86,1268.26c0,0 -33.975,30.874 -54.338,39.627" style="fill:none;stroke:#fff;stroke-width:6.25px;"/><path d="M1143.09,1320.64c0,0 -30.287,16.129 -52.406,25.46" style="fill:none;stroke:#fff;stroke-width:6.25px;"/></g></svg>